<mxfile host="app.diagrams.net" modified="2022-03-21T03:28:13.689Z" agent="5.0 (Windows NT 10.0; Win64; x64) AppleWebKit/537.36 (KHTML, like Gecko) Chrome/99.0.4844.74 Safari/537.36" etag="7bZt5YAa8JpsXTHSOnRc" version="17.1.3" type="github">
  <diagram id="EKvn_mkxYGJb-ciBtXjx" name="Page-1">
    <mxGraphModel dx="1490" dy="624" grid="1" gridSize="10" guides="1" tooltips="1" connect="1" arrows="1" fold="1" page="1" pageScale="1" pageWidth="1169" pageHeight="827" math="0" shadow="0">
      <root>
        <mxCell id="0" />
        <mxCell id="1" parent="0" />
        <mxCell id="ojvJVH6yT1Uk1YMdXBC4-32" value="" style="rounded=0;whiteSpace=wrap;html=1;" parent="1" vertex="1">
          <mxGeometry x="280" y="467" width="160" height="90" as="geometry" />
        </mxCell>
        <mxCell id="ojvJVH6yT1Uk1YMdXBC4-13" style="edgeStyle=orthogonalEdgeStyle;rounded=0;orthogonalLoop=1;jettySize=auto;html=1;exitX=1;exitY=0.5;exitDx=0;exitDy=0;" parent="1" source="ojvJVH6yT1Uk1YMdXBC4-1" edge="1">
          <mxGeometry relative="1" as="geometry">
            <mxPoint x="300" y="410" as="targetPoint" />
          </mxGeometry>
        </mxCell>
        <mxCell id="ojvJVH6yT1Uk1YMdXBC4-1" value="Solar PV Array 6V" style="rounded=0;whiteSpace=wrap;html=1;" parent="1" vertex="1">
          <mxGeometry x="150" y="380" width="120" height="60" as="geometry" />
        </mxCell>
        <mxCell id="ojvJVH6yT1Uk1YMdXBC4-30" style="edgeStyle=orthogonalEdgeStyle;rounded=0;orthogonalLoop=1;jettySize=auto;html=1;exitX=0.25;exitY=1;exitDx=0;exitDy=0;entryX=0;entryY=0.57;entryDx=0;entryDy=0;entryPerimeter=0;" parent="1" source="ojvJVH6yT1Uk1YMdXBC4-3" target="ojvJVH6yT1Uk1YMdXBC4-10" edge="1">
          <mxGeometry relative="1" as="geometry" />
        </mxCell>
        <mxCell id="ojvJVH6yT1Uk1YMdXBC4-31" style="edgeStyle=orthogonalEdgeStyle;rounded=0;orthogonalLoop=1;jettySize=auto;html=1;exitX=0.75;exitY=1;exitDx=0;exitDy=0;entryX=0;entryY=0.57;entryDx=0;entryDy=0;entryPerimeter=0;" parent="1" source="ojvJVH6yT1Uk1YMdXBC4-3" target="ojvJVH6yT1Uk1YMdXBC4-11" edge="1">
          <mxGeometry relative="1" as="geometry" />
        </mxCell>
        <mxCell id="bNgsHODYQrMTYsQvJ4R6-5" style="edgeStyle=orthogonalEdgeStyle;rounded=0;orthogonalLoop=1;jettySize=auto;html=1;entryX=0;entryY=0.5;entryDx=0;entryDy=0;" parent="1" source="ojvJVH6yT1Uk1YMdXBC4-3" target="bNgsHODYQrMTYsQvJ4R6-4" edge="1">
          <mxGeometry relative="1" as="geometry" />
        </mxCell>
        <mxCell id="ojvJVH6yT1Uk1YMdXBC4-3" value="Li-Ion Battery Charging Controller" style="rounded=0;whiteSpace=wrap;html=1;" parent="1" vertex="1">
          <mxGeometry x="300" y="381" width="120" height="60" as="geometry" />
        </mxCell>
        <mxCell id="bNgsHODYQrMTYsQvJ4R6-6" style="edgeStyle=orthogonalEdgeStyle;rounded=0;orthogonalLoop=1;jettySize=auto;html=1;entryX=0.5;entryY=0;entryDx=0;entryDy=0;" parent="1" source="ojvJVH6yT1Uk1YMdXBC4-5" target="bNgsHODYQrMTYsQvJ4R6-4" edge="1">
          <mxGeometry relative="1" as="geometry" />
        </mxCell>
        <mxCell id="ojvJVH6yT1Uk1YMdXBC4-5" value="Battery Protection IC" style="rounded=0;whiteSpace=wrap;html=1;" parent="1" vertex="1">
          <mxGeometry x="454" y="300" width="120" height="60" as="geometry" />
        </mxCell>
        <mxCell id="ojvJVH6yT1Uk1YMdXBC4-18" style="edgeStyle=orthogonalEdgeStyle;rounded=0;orthogonalLoop=1;jettySize=auto;html=1;entryX=0;entryY=0.5;entryDx=0;entryDy=0;" parent="1" source="ojvJVH6yT1Uk1YMdXBC4-8" target="ojvJVH6yT1Uk1YMdXBC4-9" edge="1">
          <mxGeometry relative="1" as="geometry" />
        </mxCell>
        <mxCell id="ojvJVH6yT1Uk1YMdXBC4-8" value="Boost Converter 5V" style="rounded=0;whiteSpace=wrap;html=1;" parent="1" vertex="1">
          <mxGeometry x="710" y="380" width="120" height="60" as="geometry" />
        </mxCell>
        <mxCell id="ojvJVH6yT1Uk1YMdXBC4-9" value="USB Adapter" style="rounded=0;whiteSpace=wrap;html=1;" parent="1" vertex="1">
          <mxGeometry x="860" y="380" width="120" height="60" as="geometry" />
        </mxCell>
        <mxCell id="ojvJVH6yT1Uk1YMdXBC4-10" value="RED LED" style="verticalLabelPosition=bottom;shadow=0;dashed=0;align=center;html=1;verticalAlign=top;shape=mxgraph.electrical.opto_electronics.led_2;pointerEvents=1;direction=south;" parent="1" vertex="1">
          <mxGeometry x="300" y="467" width="40" height="60" as="geometry" />
        </mxCell>
        <mxCell id="ojvJVH6yT1Uk1YMdXBC4-11" value="BLUE LED" style="verticalLabelPosition=bottom;shadow=0;dashed=0;align=center;html=1;verticalAlign=top;shape=mxgraph.electrical.opto_electronics.led_2;pointerEvents=1;direction=south;" parent="1" vertex="1">
          <mxGeometry x="380" y="467" width="40" height="60" as="geometry" />
        </mxCell>
        <mxCell id="ojvJVH6yT1Uk1YMdXBC4-36" value="Battery Status Indicator" style="text;html=1;align=center;verticalAlign=middle;resizable=0;points=[];autosize=1;strokeColor=none;fillColor=none;" parent="1" vertex="1">
          <mxGeometry x="290" y="557" width="140" height="20" as="geometry" />
        </mxCell>
        <mxCell id="bNgsHODYQrMTYsQvJ4R6-10" style="edgeStyle=orthogonalEdgeStyle;rounded=0;orthogonalLoop=1;jettySize=auto;html=1;exitX=1;exitY=0.8;exitDx=0;exitDy=0;entryX=0;entryY=0.5;entryDx=0;entryDy=0;" parent="1" source="bNgsHODYQrMTYsQvJ4R6-1" target="ojvJVH6yT1Uk1YMdXBC4-8" edge="1">
          <mxGeometry relative="1" as="geometry" />
        </mxCell>
        <mxCell id="bNgsHODYQrMTYsQvJ4R6-1" value="" style="shape=mxgraph.electrical.electro-mechanical.singleSwitch;aspect=fixed;elSwitchState=off;" parent="1" vertex="1">
          <mxGeometry x="600" y="394" width="75" height="20" as="geometry" />
        </mxCell>
        <mxCell id="bNgsHODYQrMTYsQvJ4R6-12" style="edgeStyle=orthogonalEdgeStyle;rounded=0;orthogonalLoop=1;jettySize=auto;html=1;entryX=0;entryY=0.8;entryDx=0;entryDy=0;" parent="1" source="bNgsHODYQrMTYsQvJ4R6-4" target="bNgsHODYQrMTYsQvJ4R6-1" edge="1">
          <mxGeometry relative="1" as="geometry">
            <mxPoint x="620" y="460" as="targetPoint" />
            <Array as="points">
              <mxPoint x="600" y="410" />
              <mxPoint x="600" y="410" />
            </Array>
          </mxGeometry>
        </mxCell>
        <mxCell id="bNgsHODYQrMTYsQvJ4R6-4" value="&#xa;&#xa;&lt;span style=&quot;font-family: helvetica; font-size: 12px; font-style: normal; font-weight: 400; letter-spacing: normal; text-align: center; text-indent: 0px; text-transform: none; word-spacing: 0px; display: inline; float: none;&quot;&gt;Li-Ion Battery&lt;/span&gt;&lt;br style=&quot;font-family: helvetica; font-size: 12px; font-style: normal; font-weight: 400; letter-spacing: normal; text-align: center; text-indent: 0px; text-transform: none; word-spacing: 0px;&quot;&gt;&lt;span style=&quot;font-family: helvetica; font-size: 12px; font-style: normal; font-weight: 400; letter-spacing: normal; text-align: center; text-indent: 0px; text-transform: none; word-spacing: 0px; display: inline; float: none;&quot;&gt;1500mAh&lt;/span&gt;&#xa;&#xa;" style="rounded=0;whiteSpace=wrap;html=1;strokeColor=default;fontColor=default;labelBackgroundColor=none;" parent="1" vertex="1">
          <mxGeometry x="454" y="381" width="120" height="60" as="geometry" />
        </mxCell>
        <mxCell id="bNgsHODYQrMTYsQvJ4R6-13" value="Switch&lt;br&gt;" style="text;html=1;align=center;verticalAlign=middle;resizable=0;points=[];autosize=1;strokeColor=none;fillColor=none;" parent="1" vertex="1">
          <mxGeometry x="612.5" y="414" width="50" height="20" as="geometry" />
        </mxCell>
      </root>
    </mxGraphModel>
  </diagram>
</mxfile>
